<svg width="250" height="326" viewBox="0 0 250 326" fill="none" xmlns="http://www.w3.org/2000/svg">
<path d="M195.04 101.235C196.15 101.235 196.993 100.4 196.993 99.3026C196.993 99.083 196.86 98.6876 196.771 98.468C192.244 89.2016 181.059 85.3371 171.694 89.7726C167.921 91.5732 164.858 94.6033 162.905 98.468C162.417 99.4341 162.772 100.532 163.749 101.015C163.971 101.147 164.37 101.235 164.592 101.235H195.04Z" fill="#2B31BA"/>
<path d="M179.905 91.0029C189.803 91.0029 197.792 83.0541 197.792 73.2607C197.792 63.4674 189.758 55.5186 179.905 55.5186C170.051 55.5186 162.018 63.4674 162.018 73.2607C162.018 83.0541 170.051 91.0029 179.905 91.0029Z" fill="#2B31BA"/>
<path d="M167.965 86.5227C170.761 88.9381 174.179 90.5191 177.819 90.8704H181.858C185.497 90.5191 189.048 88.938 191.711 86.3909V59.9973C184.876 53.9807 174.667 53.9807 167.832 59.9973V86.5227H167.965Z" fill="#6267CC"/>
<path d="M179.905 81.6037C184.21 81.6037 187.717 78.1343 187.717 73.8744C187.717 69.6145 184.21 66.1453 179.905 66.1453C175.599 66.1453 172.093 69.6145 172.093 73.8744C172.137 78.1343 175.599 81.6037 179.905 81.6037Z" fill="#AAACE3"/>
<path d="M179.905 78.5736C182.524 78.5736 184.655 76.4655 184.655 73.8745C184.655 71.2834 182.524 69.1755 179.905 69.1755C177.287 69.1755 175.156 71.2834 175.156 73.8745C175.156 76.4655 177.287 78.5736 179.905 78.5736Z" fill="#110580"/>
<path d="M136.231 16.8184C131.681 16.8184 128.006 20.4543 128.006 24.9329V32.8308C128.006 37.3095 131.681 40.9454 136.231 40.9454C140.782 40.9454 144.457 37.3095 144.457 32.8308V24.9329C144.433 20.4543 140.758 16.8184 136.231 16.8184Z" fill="#AAACE3"/>
<path d="M144.749 50.2158C144.944 50.2158 145.115 50.1677 145.285 50.0714C145.455 49.9751 145.577 49.8547 145.674 49.7102C145.772 49.5657 145.82 49.3731 145.845 49.2045C145.845 49.0119 145.796 48.8433 145.723 48.6748C144.847 46.917 143.508 45.4241 141.829 44.3887C140.15 43.3533 138.203 42.7996 136.232 42.7996C134.261 42.7996 132.314 43.3533 130.635 44.3887C128.955 45.4241 127.593 46.917 126.741 48.6748C126.643 48.8433 126.619 49.0119 126.619 49.2045C126.619 49.3971 126.692 49.5657 126.79 49.7102C126.887 49.8547 127.009 49.9991 127.179 50.0714C127.349 50.1677 127.52 50.2158 127.714 50.2158H144.749Z" fill="#868AE0"/>
<path d="M138.446 25.0294C138.446 25.4388 138.617 25.824 138.909 26.113C139.201 26.4019 139.59 26.5704 140.004 26.5704H144.409V24.909C144.409 24.4274 144.36 23.9218 144.287 23.4402H140.028C139.833 23.4402 139.614 23.4883 139.42 23.5606C139.225 23.6328 139.055 23.7532 138.909 23.8977C138.763 24.0422 138.665 24.2107 138.568 24.4033C138.471 24.62 138.446 24.8127 138.446 25.0294Z" fill="#868AE0"/>
<path d="M138.446 29.9417C138.446 30.351 138.617 30.7363 138.909 31.0252C139.201 31.3142 139.59 31.4827 140.004 31.4827H144.409V28.4006H140.028C139.614 28.4006 139.225 28.5692 138.933 28.8581C138.617 29.1471 138.446 29.5323 138.446 29.9417Z" fill="#868AE0"/>
<path d="M138.446 34.8777C138.446 35.287 138.617 35.6723 138.909 35.9612C139.201 36.2502 139.59 36.4188 140.004 36.4188H143.581C144.068 35.4556 144.336 34.3961 144.409 33.3367H140.028C139.614 33.3367 139.225 33.5052 138.933 33.7941C138.617 34.059 138.446 34.4684 138.446 34.8777Z" fill="#868AE0"/>
<path d="M133.968 25.0294C133.968 24.62 133.798 24.2348 133.506 23.9458C133.214 23.6569 132.824 23.4883 132.411 23.4883H128.127C128.03 23.9699 127.981 24.4515 127.981 24.9571V26.5704H132.411C132.824 26.5704 133.214 26.4019 133.506 26.1129C133.822 25.824 133.968 25.4387 133.968 25.0294Z" fill="#868AE0"/>
<path d="M133.968 29.9417C133.968 29.5323 133.798 29.1471 133.506 28.8581C133.214 28.5692 132.824 28.4006 132.411 28.4006H127.981V31.4827H132.411C132.824 31.4827 133.214 31.3142 133.506 31.0252C133.822 30.7603 133.968 30.351 133.968 29.9417Z" fill="#868AE0"/>
<path d="M133.968 34.8777C133.968 34.4684 133.798 34.0831 133.506 33.7941C133.214 33.5052 132.824 33.3367 132.411 33.3367H128.006C128.055 34.3961 128.322 35.4556 128.785 36.4188H132.362C132.557 36.4188 132.776 36.3947 132.97 36.3224C133.165 36.2502 133.335 36.1298 133.481 35.9853C133.627 35.8409 133.749 35.6723 133.822 35.4797C133.944 35.287 133.968 35.0703 133.968 34.8777Z" fill="#868AE0"/>
<path d="M136.207 45.8334C132.629 45.8334 129.198 44.4128 126.667 41.9326C124.136 39.4284 122.725 36.0333 122.7 32.5178V31.5306C122.7 31.1212 122.871 30.736 123.163 30.447C123.455 30.1581 123.844 29.9895 124.258 29.9895C124.672 29.9895 125.061 30.1581 125.353 30.447C125.645 30.736 125.815 31.1212 125.815 31.5306V32.5178C125.815 35.2387 126.91 37.8392 128.857 39.7414C130.804 41.6677 133.432 42.7273 136.182 42.7273C138.932 42.7273 141.561 41.6437 143.507 39.7414C145.454 37.8151 146.549 35.2146 146.549 32.5178V31.5306C146.549 31.1212 146.72 30.736 147.012 30.447C147.304 30.1581 147.693 29.9895 148.131 29.9895C148.545 29.9895 148.934 30.1581 149.226 30.447C149.518 30.736 149.689 31.1212 149.689 31.5306V32.5178C149.689 36.0333 148.277 39.4284 145.746 41.9326C143.215 44.3887 139.784 45.8093 136.207 45.8334Z" fill="#AAACE3"/>
<path d="M156.601 25.8482H153.34C153.34 21.3695 151.539 17.0594 148.326 13.881C145.114 10.7026 140.758 8.9207 136.207 8.9207C131.656 8.9207 127.3 10.7026 124.088 13.881C120.875 17.0594 119.074 21.3454 119.074 25.8482H115.813C115.813 20.5026 117.955 15.398 121.776 11.6176C125.597 7.8372 130.78 5.71826 136.183 5.71826C141.585 5.71826 146.769 7.8372 150.59 11.6176C154.459 15.398 156.601 20.5026 156.601 25.8482Z" fill="#AAACE3"/>
<path d="M118.15 22.2124H116.592C115.327 22.2124 114.28 23.2237 114.28 24.4999V38.0562C114.28 39.3083 115.302 40.3437 116.592 40.3437H118.15C119.415 40.3437 120.462 39.3324 120.462 38.0562V24.4999C120.437 23.2237 119.415 22.2124 118.15 22.2124Z" fill="#110580"/>
<path d="M155.847 22.2124H154.289C153 22.2124 151.978 23.2237 151.978 24.4999V38.0562C151.978 39.3083 153 40.3437 154.289 40.3437H155.847C157.112 40.3437 158.159 39.3324 158.159 38.0562V24.4999C158.159 23.2237 157.112 22.2124 155.847 22.2124Z" fill="#110580"/>
<path d="M158.158 24.1384V38.369C159.57 37.767 160.762 36.7798 161.614 35.5277C162.466 34.2756 162.904 32.7827 162.904 31.2898C162.904 29.7729 162.466 28.304 161.614 27.0519C160.762 25.7998 159.57 24.8126 158.158 24.2106V24.1384Z" fill="#2B31BA"/>
<path d="M193.251 32.136V53.6175C193.251 54.2389 193.766 54.7537 194.387 54.7537C195.026 54.7537 195.523 54.2389 195.523 53.6175V32.136C195.523 31.5146 195.026 30.9998 194.387 30.9998C193.748 30.9998 193.251 31.5146 193.251 32.136Z" fill="#FF7A82"/>
<path d="M203.867 34.6572V51.0968C203.867 51.7182 204.382 52.233 205.003 52.233C205.625 52.233 206.14 51.7182 206.14 51.0968V34.6572C206.14 34.0358 205.625 33.521 205.003 33.521C204.364 33.521 203.867 34.0358 203.867 34.6572Z" fill="#FF7A82"/>
<path d="M182.617 34.6572V51.0968C182.617 51.7182 183.132 52.233 183.753 52.233C184.375 52.233 184.89 51.7182 184.89 51.0968V34.6572C184.89 34.0358 184.375 33.521 183.753 33.521C183.132 33.521 182.617 34.0358 182.617 34.6572Z" fill="#FF7A82"/>
<path d="M209.176 38.9358V46.836C209.176 47.4574 209.691 47.9722 210.312 47.9722C210.933 47.9722 211.448 47.4574 211.448 46.836V38.9358C211.448 38.3144 210.933 37.7996 210.312 37.7996C209.691 37.7996 209.176 38.3144 209.176 38.9358Z" fill="#FF7A82"/>
<path d="M177.309 38.9358V46.836C177.309 47.4574 177.823 47.9722 178.445 47.9722C179.084 47.9722 179.581 47.4574 179.581 46.836V38.9358C179.581 38.3144 179.084 37.7996 178.445 37.7996C177.823 37.7996 177.309 38.2967 177.309 38.9358Z" fill="#FF7A82"/>
<path d="M214.483 37.1782V48.5936C214.483 49.215 214.998 49.7298 215.62 49.7298C216.241 49.7298 216.756 49.215 216.756 48.5936V37.1782C216.756 36.5568 216.241 36.042 215.62 36.042C214.998 36.042 214.483 36.5568 214.483 37.1782Z" fill="#FF7A82"/>
<path d="M172 37.1782V48.5936C172 49.215 172.497 49.7298 173.136 49.7298C173.758 49.7298 174.272 49.215 174.272 48.5936V37.1782C174.272 36.5568 173.758 36.042 173.136 36.042C172.515 36.042 172 36.5391 172 37.1782Z" fill="#FF7A82"/>
<path d="M198.56 36.166V49.5875C198.56 50.2089 199.057 50.7237 199.696 50.7237C200.317 50.7237 200.832 50.2089 200.832 49.5875V36.166C200.832 35.5446 200.317 35.0298 199.696 35.0298C199.057 35.0298 198.56 35.5269 198.56 36.166Z" fill="#FF7A82"/>
<path d="M187.884 35.957V49.3785C187.884 49.9999 188.399 50.5147 189.02 50.5147C189.659 50.5147 190.156 49.9999 190.156 49.3785V35.957C190.156 35.3356 189.641 34.8208 189.02 34.8208C188.399 34.8208 187.884 35.3356 187.884 35.957Z" fill="#FF7A82"/>
<g clip-path="url(#clip0)">
<path d="M150.906 53.3379H6.04834C2.70793 53.3379 0 56.023 0 59.3354V163.991C0 167.304 2.70793 169.989 6.04834 169.989H150.906C154.246 169.989 156.954 167.304 156.954 163.991V59.3354C156.954 56.023 154.246 53.3379 150.906 53.3379Z" fill="white"/>
<path d="M69.5559 79.4268H11.7943C10.4582 79.4268 9.375 80.5008 9.375 81.8257V82.7254C9.375 84.0503 10.4582 85.1244 11.7943 85.1244H69.5559C70.8921 85.1244 71.9753 84.0503 71.9753 82.7254V81.8257C71.9753 80.5008 70.8921 79.4268 69.5559 79.4268Z" fill="#D8DEED"/>
<path d="M14.0584 150.153H32.7149C33.745 150.153 34.6423 150.362 35.381 150.754C36.1197 151.146 36.6997 151.721 37.0951 152.454C37.4904 153.186 37.7011 154.076 37.7011 155.097C37.7011 156.119 37.4904 157.009 37.0951 157.741C36.6997 158.473 36.1197 159.049 35.381 159.441C34.6423 159.833 33.745 160.042 32.7149 160.042H14.0584C13.0284 160.042 12.131 159.833 11.3923 159.441C10.6536 159.049 10.0736 158.473 9.67827 157.741C9.28293 157.009 9.07227 156.119 9.07227 155.097C9.07227 154.076 9.28293 153.186 9.67827 152.454C10.0736 151.721 10.6536 151.146 11.3923 150.754C12.131 150.362 13.0284 150.153 14.0584 150.153Z" fill="#474BFF"/>
<path d="M113.729 90.822H143.085C144.433 90.822 145.525 91.905 145.525 93.241V94.0806C145.525 95.4166 144.433 96.4996 143.085 96.4996H113.729C112.381 96.4996 111.289 95.4166 111.289 94.0806V93.241C111.289 91.905 112.381 90.822 113.729 90.822ZM113.729 100.048H145.938C147.286 100.048 148.378 101.131 148.378 102.467V103.307C148.378 104.643 147.286 105.726 145.938 105.726H113.729C112.381 105.726 111.289 104.643 111.289 103.307V102.467C111.289 101.131 112.381 100.048 113.729 100.048ZM113.729 109.274H144.512C145.859 109.274 146.951 110.357 146.951 111.693V112.533C146.951 113.869 145.859 114.952 144.512 114.952H113.729C112.381 114.952 111.289 113.869 111.289 112.533V111.693C111.289 110.357 112.381 109.274 113.729 109.274ZM113.729 118.5H146.652C147.999 118.5 149.091 119.583 149.091 120.919V121.759C149.091 123.095 147.999 124.178 146.652 124.178H113.729C112.381 124.178 111.289 123.095 111.289 121.759V120.919C111.289 119.583 112.381 118.5 113.729 118.5ZM113.729 127.726H141.659C143.006 127.726 144.098 128.809 144.098 130.145V130.985C144.098 132.321 143.006 133.404 141.659 133.404H113.729C112.381 133.404 111.289 132.321 111.289 130.985V130.145C111.289 128.809 112.381 127.726 113.729 127.726Z" fill="#E1E5F0"/>
<path d="M0 59.3367C0 56.0236 2.7077 53.3379 6.05064 53.3379H150.904C154.245 53.3379 156.954 56.0239 156.954 59.3367V66.5323H0V59.3367Z" fill="#E1E5F0"/>
<path d="M8.92081 62.9337C10.5075 62.9337 11.7938 61.6582 11.7938 60.0849C11.7938 58.5115 10.5075 57.2361 8.92081 57.2361C7.33412 57.2361 6.04785 58.5115 6.04785 60.0849C6.04785 61.6582 7.33412 62.9337 8.92081 62.9337Z" fill="#FF5645"/>
<path d="M18.2958 62.9337C19.8825 62.9337 21.1688 61.6582 21.1688 60.0849C21.1688 58.5115 19.8825 57.2361 18.2958 57.2361C16.7091 57.2361 15.4229 58.5115 15.4229 60.0849C15.4229 61.6582 16.7091 62.9337 18.2958 62.9337Z" fill="#FFCB3D"/>
<path d="M27.9735 62.9337C29.5602 62.9337 30.8465 61.6582 30.8465 60.0849C30.8465 58.5115 29.5602 57.2361 27.9735 57.2361C26.3869 57.2361 25.1006 58.5115 25.1006 60.0849C25.1006 61.6582 26.3869 62.9337 27.9735 62.9337Z" fill="#3ABF7C"/>
<circle cx="95.4642" cy="90.2916" r="2.23963" fill="#C4C4C4"/>
<circle cx="95.4642" cy="99.2501" r="2.23963" fill="#C4C4C4"/>
<circle cx="95.4642" cy="108.209" r="2.23963" fill="#C4C4C4"/>
<circle cx="95.4642" cy="117.167" r="2.23963" fill="#C4C4C4"/>
<path d="M10.3148 96.3733H43.9994C44.5184 96.3733 44.9392 96.7905 44.9392 97.3052V98.9507C44.9392 99.4654 44.5184 99.8826 43.9994 99.8826H10.3148C9.79577 99.8826 9.375 99.4654 9.375 98.9507V97.3052C9.375 96.7905 9.79577 96.3733 10.3148 96.3733ZM10.3148 102.076H48.4449C48.964 102.076 49.3847 102.493 49.3847 103.008V104.653C49.3847 105.168 48.964 105.585 48.4449 105.585H10.3148C9.79577 105.585 9.375 105.168 9.375 104.653V103.008C9.375 102.493 9.79577 102.076 10.3148 102.076ZM10.3148 113.481H52.8904C53.4095 113.481 53.8303 113.898 53.8303 114.413V116.059C53.8303 116.573 53.4095 116.99 52.8904 116.99H10.3148C9.79577 116.99 9.375 116.573 9.375 116.059V114.413C9.375 113.898 9.79577 113.481 10.3148 113.481ZM10.3148 119.184H39.5539C40.0729 119.184 40.4937 119.601 40.4937 120.116V121.761C40.4937 122.276 40.0729 122.693 39.5539 122.693H10.3148C9.79577 122.693 9.375 122.276 9.375 121.761V120.116C9.375 119.601 9.79577 119.184 10.3148 119.184ZM10.3148 124.886H48.4449C48.964 124.886 49.3847 125.304 49.3847 125.818V127.464C49.3847 127.978 48.964 128.396 48.4449 128.396H10.3148C9.79577 128.396 9.375 127.978 9.375 127.464V125.818C9.375 125.304 9.79577 124.886 10.3148 124.886ZM10.3148 130.589H52.8904C53.4095 130.589 53.8303 131.006 53.8303 131.521V133.166C53.8303 133.681 53.4095 134.098 52.8904 134.098H10.3148C9.79577 134.098 9.375 133.681 9.375 133.166V131.521C9.375 131.006 9.79577 130.589 10.3148 130.589Z" fill="#E1E5F0"/>
<path d="M52.8904 90.822H10.3148C9.79577 90.822 9.375 91.2393 9.375 91.7539V93.1553C9.375 93.67 9.79577 94.0873 10.3148 94.0873H52.8904C53.4095 94.0873 53.8303 93.67 53.8303 93.1553V91.7539C53.8303 91.2393 53.4095 90.822 52.8904 90.822Z" fill="#D8DEED"/>
<g clip-path="url(#clip1)">
<path d="M95.4642 124.026C95.1043 124.026 94.7525 124.133 94.4533 124.333C94.154 124.533 93.9208 124.817 93.783 125.149C93.6453 125.482 93.6093 125.848 93.6795 126.201C93.7497 126.554 93.923 126.878 94.1775 127.133C94.432 127.387 94.7562 127.56 95.1092 127.631C95.4622 127.701 95.8281 127.665 96.1606 127.527C96.4931 127.389 96.7773 127.156 96.9773 126.857C97.1772 126.558 97.2839 126.206 97.2839 125.846C97.2834 125.363 97.0915 124.901 96.7503 124.56C96.4092 124.219 95.9467 124.027 95.4642 124.026ZM96.3309 125.527L95.3043 126.507C95.2782 126.532 95.2435 126.546 95.2075 126.546C95.1715 126.546 95.1368 126.532 95.1107 126.507L94.5976 126.017C94.5707 125.991 94.5551 125.956 94.5543 125.919C94.5534 125.882 94.5674 125.846 94.5931 125.819C94.6187 125.792 94.654 125.777 94.6912 125.776C94.7283 125.775 94.7643 125.789 94.7911 125.815L95.2075 126.212L96.1373 125.325C96.1642 125.299 96.2001 125.285 96.2371 125.286C96.2741 125.287 96.3092 125.303 96.3348 125.33C96.3604 125.356 96.3743 125.392 96.3736 125.429C96.3729 125.466 96.3575 125.501 96.3309 125.527V125.527Z" fill="#0E43B3"/>
</g>
</g>
<path d="M220.853 112.021C225.303 114.915 226.892 120.702 224.031 125.203L175.085 205.901C172.224 210.402 166.503 212.01 162.054 209.116L220.853 112.021Z" fill="#90A4AE"/>
<path d="M170.317 212.653H144.891C143.937 212.653 144.255 211.688 144.255 210.724C144.255 209.759 145.208 208.795 146.162 208.795H170.317C172.224 208.795 174.131 207.83 175.085 205.901L224.031 125.203C224.667 124.238 225.62 123.917 226.574 124.56C227.527 125.203 227.845 126.167 227.209 127.132L178.581 207.83C176.674 210.724 173.813 212.653 170.317 212.653Z" fill="#546E7A"/>
<path d="M244.054 212.653H146.162C145.208 212.653 144.255 211.688 144.255 210.724C144.255 209.759 145.208 208.795 146.162 208.795H240.558L208.139 153.817C207.504 152.852 207.821 151.566 208.775 151.245C209.729 150.602 211 150.923 211.318 151.888L245.644 209.759C246.279 210.724 245.961 212.01 245.008 212.331C245.008 212.331 244.372 212.653 244.054 212.653Z" fill="#546E7A"/>
<path d="M17.097 326C16.5482 326 15.9959 325.831 15.5212 325.481C14.3506 324.618 14.1075 322.976 14.9786 321.815L71.3508 246.699C72.2229 245.539 73.8779 245.298 75.0485 246.162C76.2191 247.025 76.4622 248.667 75.5911 249.827L19.2188 324.944C18.7 325.635 17.9038 326 17.097 326Z" fill="#A1C3FC"/>
<path d="M73.4737 326C72.6669 326 71.8706 325.635 71.3518 324.944L14.9796 249.828C14.1084 248.667 14.3515 247.025 15.5222 246.162C16.6936 245.299 18.3478 245.539 19.2198 246.699L75.5921 321.815C76.4632 322.976 76.2201 324.618 75.0495 325.481C74.5747 325.831 74.0216 326 73.4737 326Z" fill="#A1C3FC"/>
<path d="M85.8022 249.137H5.536C4.07649 249.137 2.89355 247.965 2.89355 246.516C2.89355 245.068 4.07649 243.896 5.536 243.896H85.8022C87.2617 243.896 88.4446 245.069 88.4446 246.516C88.4446 247.964 87.2617 249.137 85.8022 249.137Z" fill="#A1C3FC"/>
<path d="M236.593 268.836L236.603 320.55H228L227.99 268.836L228 216.649H236.603L236.593 268.836Z" fill="#4E342E"/>
<path d="M195.445 268.364L195.454 320.55H186.851L186.842 268.364L186.851 216.649H195.454L195.445 268.364Z" fill="#4E342E"/>
<path d="M250 211.926H96.8896V222.316H250V211.926Z" fill="#6D4C41"/>
<path d="M250 311.105H148.564V320.551H250V311.105Z" fill="#6D4C41"/>
<path d="M112.774 206.046C112.774 206.046 121.969 207.741 126.827 206.016C131.684 204.291 138.676 199.868 141.059 201.502C143.442 203.136 150.644 208.146 150.644 208.146C150.644 208.146 148.628 210.326 144.228 207.602C139.829 204.877 139.214 206.652 136.831 208.377C134.447 210.103 129.758 215.006 125.451 213.553C121.144 212.1 118.852 212.555 115.003 215.097C111.153 217.64 105.38 221 105.38 221L108.679 208.196L112.774 206.046Z" fill="url(#paint0_linear)"/>
<path d="M77.2832 184.997C77.4561 185.697 77.6131 186.427 77.749 187.174C80.8616 204.077 88.3072 211.281 98.2113 212.125C103.54 212.579 108.075 211.787 111.81 211.403L112.775 206.046C84.8863 203.983 79.6582 190.113 77.2832 184.997Z" fill="url(#paint1_linear)"/>
<path d="M115.522 307.137L108.698 325.998L156.872 326C156.872 326 154.401 321.279 146.168 317.783C137.934 314.286 130.248 307.139 130.248 307.139L115.522 307.137Z" fill="url(#paint2_linear)"/>
<path d="M87.273 307.138L80.4492 325.998L128.624 326C128.624 326 126.153 321.279 117.92 317.783C109.686 314.286 102.996 307.136 102.996 307.136L87.273 307.138Z" fill="url(#paint3_linear)"/>
<path d="M114.472 221.4C100.228 219.937 77.6733 219.247 77.6733 219.247L44.3439 225.013C44.3439 225.013 37.4731 240.188 64.7359 241.592C77.7267 242.261 105.526 247.751 112.184 244.972C113.415 244.454 114.837 245.022 115.36 246.241C115.503 246.575 115.568 246.936 115.55 247.298C115.41 249.892 115.399 251.237 111.696 261.214C106.075 276.361 109.794 296.928 115.521 307.138H130.246C130.994 302.969 140.252 246.866 140.549 237.813C141.016 223.561 124.525 222.432 114.472 221.4Z" fill="url(#paint4_linear)"/>
<path d="M36.0638 213.497C36.0638 213.497 24.9706 238.481 51.2409 245.842C63.7591 249.349 90.6333 249.113 97.7473 247.866C99.0638 247.631 100.323 248.498 100.56 249.802C100.625 250.159 100.608 250.525 100.509 250.873C99.7924 253.372 99.4799 254.682 93.6364 263.596C83.6165 278.881 81.9119 295.555 87.2732 307.136L102.996 307.135C102.996 307.135 125.646 253.988 129.152 245.22C134.137 232.754 123.243 226.888 109.211 224.051C95.1787 221.213 69.8532 215.199 69.8532 215.199L36.0638 213.497Z" fill="#428DFC"/>
<path opacity="0.86" d="M51.1921 230.188C51.2444 230.21 51.3047 230.187 51.3274 230.134C51.3502 230.083 51.3258 230.022 51.273 230C51.2206 229.978 51.1604 230.002 51.1376 230.054C51.1154 230.106 51.1397 230.166 51.1921 230.188ZM52.1618 227.884C52.2162 227.905 52.2776 227.882 52.304 227.83C52.323 227.777 52.2966 227.717 52.2427 227.697C52.1945 227.673 52.1364 227.692 52.1115 227.74C52.1099 227.744 52.1084 227.747 52.1068 227.75C52.0856 227.802 52.1094 227.862 52.1618 227.884ZM61.7518 230.162C61.773 230.215 61.8343 230.242 61.8888 230.221C61.939 230.203 61.9649 230.148 61.9464 230.098C61.9448 230.094 61.9432 230.09 61.9411 230.086C61.9221 230.034 61.8634 230.007 61.811 230.026C61.7571 230.047 61.7307 230.108 61.7518 230.162ZM47.5655 226.145C47.6047 226.185 47.6686 226.186 47.7083 226.147C47.7479 226.108 47.749 226.045 47.7099 226.006C47.6707 225.967 47.6068 225.965 47.5671 226.004C47.5275 226.039 47.5232 226.099 47.5587 226.139C47.5608 226.141 47.5634 226.143 47.5655 226.145ZM56.4027 229.834C56.4064 229.891 56.4524 229.936 56.5105 229.94C56.5698 229.939 56.6173 229.892 56.6168 229.833C56.6163 229.773 56.5682 229.726 56.509 229.727C56.4524 229.732 56.4064 229.777 56.4027 229.834ZM37.4531 230.806C37.5229 230.888 37.6466 230.898 37.7291 230.829C37.7307 230.828 37.7328 230.826 37.7344 230.824C37.8158 230.755 37.8248 230.634 37.7545 230.554C37.7539 230.554 37.7534 230.553 37.7534 230.553C37.6836 230.471 37.5599 230.461 37.4774 230.53C37.4758 230.531 37.4737 230.533 37.4721 230.535C37.3907 230.604 37.3817 230.724 37.452 230.805C37.4526 230.805 37.4531 230.806 37.4531 230.806ZM41.0595 227.702C41.132 227.784 41.2578 227.792 41.3403 227.72C41.4228 227.648 41.4312 227.523 41.3583 227.442C41.2885 227.361 41.1663 227.352 41.0854 227.422C41.0849 227.422 41.0844 227.423 41.0839 227.423C41.0024 227.494 40.9919 227.617 41.0595 227.702ZM51.8012 242.671C51.7959 242.78 51.8789 242.872 51.9873 242.88C52.092 242.891 52.1856 242.816 52.1972 242.713C52.1977 242.709 52.1977 242.705 52.1982 242.702C52.2035 242.594 52.1205 242.502 52.0121 242.495C51.9043 242.485 51.8102 242.564 51.8012 242.671C51.8012 242.671 51.8012 242.671 51.8012 242.671ZM52.1337 237.951C52.1274 238.06 52.2109 238.153 52.3198 238.159C52.4293 238.166 52.5229 238.083 52.5298 237.975C52.5382 237.868 52.4589 237.775 52.351 237.766C52.351 237.766 52.351 237.766 52.3505 237.766C52.2405 237.762 52.1464 237.843 52.1337 237.951ZM52.4727 233.224C52.4642 233.33 52.5451 233.423 52.6519 233.431C52.654 233.431 52.6567 233.432 52.6593 233.432C52.764 233.443 52.8576 233.368 52.8692 233.265C52.8697 233.261 52.8697 233.258 52.8703 233.254C52.874 233.145 52.792 233.052 52.6836 233.039C52.5736 233.033 52.4801 233.115 52.4727 233.224ZM52.8052 228.503C52.7989 228.611 52.8824 228.704 52.9913 228.71C53.1003 228.717 53.1944 228.634 53.2007 228.526C53.2097 228.419 53.1299 228.326 53.022 228.317C53.022 228.317 53.022 228.317 53.0215 228.317C52.9126 228.307 52.8158 228.387 52.8047 228.494C52.8057 228.497 52.8052 228.5 52.8052 228.503ZM35.2721 222.647C35.3075 222.75 35.4201 222.805 35.5238 222.77C35.6274 222.735 35.6829 222.623 35.648 222.521C35.6475 222.52 35.6475 222.519 35.647 222.518C35.6105 222.416 35.4984 222.362 35.3948 222.397C35.2922 222.431 35.2372 222.541 35.271 222.644C35.271 222.645 35.271 222.646 35.2721 222.647ZM42.7176 238.04C42.816 238.085 42.9328 238.042 42.9778 237.945C43.0232 237.848 42.9799 237.732 42.8815 237.687C42.7853 237.643 42.6716 237.683 42.624 237.777C42.578 237.875 42.6198 237.992 42.7176 238.04ZM44.8521 233.802C44.9504 233.847 45.0673 233.804 45.1122 233.706C45.1577 233.609 45.1144 233.493 45.016 233.448C44.9198 233.405 44.8061 233.444 44.7585 233.538C44.7125 233.637 44.7543 233.753 44.8521 233.802ZM46.9876 229.569C47.0881 229.615 47.2081 229.573 47.2552 229.473C47.3006 229.377 47.2615 229.262 47.1663 229.213C47.068 229.162 46.9459 229.2 46.8946 229.297C46.8428 229.394 46.8808 229.515 46.9792 229.566C46.9818 229.567 46.985 229.568 46.9876 229.569ZM60.8514 239.352C60.8879 239.453 61 239.507 61.1041 239.473C61.2056 239.44 61.2606 239.332 61.2279 239.232C61.2273 239.231 61.2273 239.231 61.2268 239.23C61.1998 239.13 61.0957 239.07 60.9952 239.097C60.9905 239.099 60.9852 239.1 60.9809 239.102C60.8784 239.139 60.8223 239.247 60.8514 239.352ZM59.3382 234.856C59.3768 234.957 59.4868 235.012 59.5914 234.983C59.694 234.947 59.7485 234.836 59.7141 234.733C59.6792 234.632 59.5682 234.577 59.4651 234.611C59.4635 234.612 59.463 234.612 59.4614 234.613C59.3599 234.646 59.3049 234.753 59.3371 234.854C59.3382 234.855 59.3382 234.855 59.3382 234.856ZM57.8265 230.367C57.8572 230.466 57.963 230.523 58.0634 230.492C58.0666 230.491 58.0692 230.49 58.0724 230.489C58.176 230.458 58.2353 230.35 58.2046 230.247C58.2035 230.244 58.203 230.241 58.2014 230.237C58.1655 230.135 58.0528 230.081 57.9487 230.116C57.8456 230.152 57.7906 230.266 57.8265 230.367ZM38.5798 235.856C38.6623 235.907 38.7696 235.883 38.822 235.803C38.8743 235.722 38.851 235.615 38.7696 235.562C38.6882 235.51 38.5793 235.533 38.5269 235.614C38.5264 235.615 38.5253 235.615 38.5253 235.617C38.4751 235.698 38.4989 235.805 38.5798 235.856ZM40.8417 232.272C40.9242 232.322 41.0315 232.298 41.0839 232.218C41.1383 232.138 41.1172 232.03 41.0363 231.976C40.9554 231.922 40.8465 231.943 40.7925 232.023C40.7909 232.027 40.7883 232.029 40.7867 232.032C40.7344 232.111 40.7555 232.216 40.8354 232.268C40.8369 232.269 40.8391 232.27 40.8417 232.272ZM43.0317 228.584C43.0386 228.628 43.065 228.665 43.1036 228.687C43.1861 228.738 43.2934 228.714 43.3458 228.633C43.3992 228.551 43.3754 228.44 43.2913 228.388C43.2908 228.387 43.2902 228.387 43.2897 228.387C43.24 228.355 43.1782 228.35 43.1237 228.374L43.1168 228.375C43.0856 228.387 43.0608 228.411 43.0481 228.441C43.0174 228.483 43.0116 228.537 43.0317 228.584ZM45.365 225.103C45.4496 225.154 45.559 225.127 45.6098 225.043C45.66 224.961 45.6341 224.853 45.5516 224.803C45.4691 224.752 45.3613 224.776 45.3095 224.856C45.2561 224.94 45.2804 225.049 45.3639 225.103C45.3634 225.103 45.3639 225.103 45.365 225.103ZM56.2108 238.68C56.2367 238.775 56.3329 238.833 56.4296 238.813C56.5216 238.793 56.5793 238.702 56.5592 238.611C56.5587 238.609 56.5576 238.607 56.5576 238.604C56.538 238.51 56.4445 238.45 56.3498 238.47C56.3488 238.47 56.3477 238.47 56.3466 238.471C56.2525 238.494 56.1938 238.585 56.2108 238.68ZM55.258 234.566C55.2807 234.659 55.3748 234.715 55.4679 234.694C55.5599 234.674 55.6175 234.583 55.598 234.492C55.5974 234.49 55.5964 234.487 55.5964 234.485C55.5768 234.391 55.4832 234.33 55.3886 234.35C55.3875 234.35 55.3865 234.351 55.3854 234.351C55.2913 234.378 55.2353 234.473 55.258 234.566ZM54.2968 230.441C54.3163 230.536 54.4099 230.596 54.5046 230.576C54.5056 230.575 54.5067 230.575 54.5077 230.575C54.5981 230.558 54.6563 230.472 54.6394 230.382C54.6383 230.377 54.6373 230.372 54.6351 230.367C54.6156 230.272 54.522 230.212 54.4274 230.232C54.4263 230.232 54.4252 230.233 54.4242 230.233C54.3327 230.257 54.2767 230.349 54.2968 230.441ZM36.7959 225.741C36.8509 225.818 36.9587 225.837 37.037 225.782C37.0391 225.781 37.0417 225.779 37.0433 225.778C37.12 225.726 37.1396 225.623 37.0877 225.547C37.0862 225.544 37.0835 225.542 37.0814 225.539C37.0269 225.459 36.9185 225.439 36.8377 225.492C36.8361 225.494 36.834 225.494 36.8329 225.496C36.7562 225.554 36.7393 225.663 36.7959 225.741ZM40.2717 223.284C40.3262 223.362 40.4341 223.382 40.5134 223.329C40.5943 223.273 40.6133 223.162 40.5573 223.082C40.4986 223.005 40.3902 222.987 40.3082 223.038C40.2294 223.096 40.2125 223.205 40.2707 223.283C40.2712 223.284 40.2712 223.284 40.2717 223.284ZM47.0627 236.751C47.05 236.846 47.1156 236.935 47.2113 236.95C47.3065 236.966 47.3963 236.903 47.4127 236.809C47.427 236.714 47.3646 236.623 47.27 236.602C47.1722 236.588 47.0802 236.654 47.0627 236.751ZM47.7723 232.581C47.7532 232.671 47.8124 232.76 47.9039 232.778C47.9076 232.779 47.9108 232.78 47.9145 232.78C48.0097 232.796 48.0995 232.733 48.1159 232.639C48.1302 232.544 48.0678 232.453 47.9732 232.433C47.8759 232.42 47.7871 232.486 47.7723 232.581ZM48.4744 228.411C48.4586 228.505 48.5215 228.594 48.6166 228.61C48.7118 228.626 48.8017 228.564 48.8181 228.47C48.834 228.376 48.771 228.287 48.6759 228.27C48.5812 228.254 48.4903 228.317 48.4744 228.411ZM63.035 233.373C63.0869 233.449 63.1905 233.468 63.2672 233.417C63.2703 233.415 63.273 233.413 63.2756 233.411C63.3565 233.357 63.3771 233.249 63.3232 233.169C63.3216 233.168 63.3211 233.165 63.3195 233.164C63.2603 233.089 63.1508 233.073 63.0721 233.127C62.9938 233.182 62.9753 233.289 63.0303 233.366C63.0324 233.369 63.034 233.371 63.035 233.373ZM60.5564 229.929C60.614 230.008 60.724 230.027 60.8054 229.973C60.8842 229.914 60.9 229.803 60.8408 229.725C60.7843 229.65 60.6801 229.632 60.6008 229.683C60.5204 229.735 60.4982 229.842 60.5506 229.921C60.5521 229.924 60.5537 229.927 60.5564 229.929ZM38.8584 225.381C38.9018 225.42 38.9679 225.417 39.007 225.374C39.0461 225.332 39.0435 225.265 39.0007 225.227C38.9573 225.188 38.8912 225.191 38.8521 225.233C38.8146 225.276 38.8172 225.34 38.8584 225.381ZM40.5736 223.561C40.617 223.6 40.6831 223.597 40.7222 223.554C40.7619 223.511 40.7587 223.445 40.7159 223.407C40.6725 223.368 40.6064 223.371 40.5673 223.413C40.5303 223.456 40.5329 223.521 40.5736 223.561ZM48.7478 228.989C48.7494 229.045 48.7975 229.089 48.854 229.087C48.9106 229.085 48.9556 229.038 48.9534 228.981C48.9519 228.925 48.9037 228.881 48.8472 228.883C48.7906 228.885 48.7462 228.932 48.7478 228.989ZM48.6568 226.497C48.6621 226.555 48.7118 226.598 48.7705 226.595C48.8276 226.594 48.872 226.547 48.8699 226.49C48.8704 226.436 48.826 226.391 48.771 226.391C48.7684 226.391 48.7657 226.391 48.7636 226.392C48.7055 226.391 48.6579 226.438 48.6574 226.495C48.6568 226.496 48.6568 226.496 48.6568 226.497ZM43.8629 226.922C43.9168 226.938 43.9739 226.912 43.9972 226.862C44.0183 226.81 43.9929 226.751 43.9411 226.731C43.9395 226.73 43.9374 226.729 43.9358 226.729C43.8851 226.707 43.8269 226.73 43.8047 226.78C43.8031 226.783 43.8026 226.786 43.801 226.789C43.7814 226.842 43.8089 226.901 43.8629 226.922ZM44.7501 224.586C44.804 224.602 44.8611 224.576 44.8844 224.526C44.9023 224.472 44.8759 224.414 44.823 224.393C44.7733 224.37 44.7141 224.391 44.6903 224.441C44.6893 224.443 44.6887 224.445 44.6877 224.447C44.6649 224.5 44.6898 224.562 44.7432 224.584C44.7458 224.585 44.7479 224.586 44.7501 224.586ZM37.0624 227.855C37.1147 227.889 37.1856 227.873 37.2194 227.822C37.2199 227.821 37.221 227.82 37.221 227.818C37.2575 227.766 37.2437 227.694 37.1908 227.659C37.1887 227.657 37.1861 227.656 37.1834 227.654C37.1311 227.62 37.0602 227.635 37.0264 227.687C37.0259 227.688 37.0248 227.689 37.0248 227.69C36.991 227.745 37.0074 227.818 37.0624 227.855ZM38.6052 225.458C38.6618 225.493 38.7363 225.475 38.7707 225.419C38.805 225.364 38.7881 225.292 38.7342 225.256C38.6819 225.222 38.611 225.237 38.5772 225.289C38.5766 225.29 38.5756 225.291 38.5756 225.292C38.537 225.343 38.547 225.415 38.5983 225.453C38.5994 225.454 38.602 225.456 38.6052 225.458ZM40.1544 223.06C40.2046 223.088 40.268 223.079 40.3082 223.039C40.314 223.031 40.3209 223.03 40.3204 223.023C40.3563 222.968 40.3394 222.894 40.2828 222.859C40.2268 222.823 40.1522 222.84 40.1168 222.896C40.0814 222.951 40.0978 223.024 40.1544 223.06ZM48.9159 229.885C48.9259 229.944 48.9825 229.985 49.0433 229.974C49.0481 229.973 49.0523 229.973 49.0571 229.971C49.12 229.956 49.1586 229.894 49.1448 229.832C49.1285 229.77 49.0671 229.73 49.0031 229.738C48.9386 229.755 48.9 229.82 48.9159 229.883C48.9159 229.884 48.9159 229.884 48.9159 229.885ZM48.2925 227.106C48.3084 227.171 48.375 227.208 48.439 227.193C48.4395 227.193 48.4395 227.193 48.44 227.192C48.503 227.178 48.5416 227.115 48.5273 227.053C48.5109 226.991 48.4496 226.952 48.3856 226.959C48.3216 226.978 48.2809 227.041 48.2925 227.106ZM36.1461 220.986C36.1836 221.037 36.2545 221.05 36.3068 221.013C36.3623 220.979 36.3792 220.906 36.3443 220.851C36.3433 220.849 36.3422 220.848 36.3412 220.846C36.3015 220.793 36.227 220.782 36.173 220.821C36.1196 220.859 36.108 220.933 36.1461 220.986ZM43.0317 228.584C43.0454 228.594 43.0613 228.602 43.0772 228.606C43.1401 228.618 43.2014 228.576 43.213 228.514C43.2136 228.512 43.2136 228.511 43.2136 228.509C43.2236 228.448 43.1845 228.389 43.1232 228.373L43.1163 228.375C43.0534 228.363 42.992 228.404 42.9804 228.467C42.9799 228.469 42.9799 228.47 42.9799 228.471C42.9709 228.516 42.9915 228.562 43.0317 228.584ZM43.4869 225.665C43.4742 225.727 43.5134 225.788 43.5758 225.801C43.5763 225.801 43.5768 225.801 43.5773 225.802C43.6418 225.813 43.7048 225.773 43.7217 225.711C43.7301 225.645 43.6873 225.585 43.6233 225.569C43.5594 225.558 43.498 225.601 43.4869 225.665ZM39.2608 235.523C39.2428 235.633 39.3179 235.736 39.4289 235.754C39.54 235.773 39.6447 235.698 39.6626 235.588C39.6806 235.478 39.6055 235.375 39.4945 235.356C39.3845 235.339 39.2798 235.413 39.2608 235.523ZM40.0222 230.701C40.0079 230.813 40.0851 230.915 40.1977 230.932C40.3082 230.945 40.4097 230.867 40.4235 230.757C40.4372 230.648 40.359 230.547 40.2474 230.534C40.139 230.52 40.0396 230.595 40.0222 230.701ZM40.7904 225.879C40.7724 225.989 40.8475 226.093 40.9586 226.111C41.0691 226.129 41.1743 226.054 41.1923 225.945C41.2102 225.835 41.1351 225.731 41.0241 225.713C40.9136 225.694 40.8089 225.769 40.7904 225.879ZM58.6889 235.674C58.7587 235.763 58.8866 235.783 58.9808 235.719C59.0706 235.649 59.086 235.522 59.0162 235.433C58.949 235.347 58.8253 235.329 58.7354 235.392C58.6461 235.458 58.6255 235.582 58.6889 235.674ZM55.7899 231.728C55.857 231.817 55.9829 231.837 56.0749 231.774C56.1663 231.708 56.187 231.582 56.1214 231.491C56.0553 231.401 55.9279 231.38 55.8364 231.445C55.746 231.512 55.7254 231.638 55.7899 231.728ZM34.8095 226.593C34.9062 226.652 35.0331 226.622 35.0929 226.526C35.1526 226.43 35.1219 226.304 35.0252 226.245C34.9284 226.185 34.8015 226.216 34.7418 226.312C34.6847 226.409 34.7148 226.533 34.8095 226.593ZM37.3743 222.423C37.4668 222.484 37.5932 222.46 37.6556 222.368C37.6567 222.366 37.6577 222.365 37.6588 222.363C37.7164 222.267 37.6868 222.143 37.5911 222.082C37.4954 222.023 37.3696 222.051 37.3098 222.146C37.3087 222.148 37.3082 222.148 37.3077 222.15C37.2506 222.243 37.2802 222.365 37.3743 222.423ZM48.1799 237.85C48.2116 237.957 48.3195 238.021 48.4289 238C48.5363 237.97 48.6003 237.861 48.5728 237.754C48.5495 237.647 48.4422 237.579 48.3343 237.602C48.3327 237.603 48.3317 237.603 48.3301 237.603C48.2206 237.629 48.1524 237.74 48.1799 237.85C48.1799 237.85 48.1799 237.85 48.1799 237.85ZM47.0236 233.101C47.0511 233.21 47.1621 233.277 47.2726 233.251H47.2731C47.3799 233.224 47.445 233.118 47.4185 233.012C47.4185 233.012 47.4185 233.012 47.4185 233.011C47.3937 232.903 47.2858 232.835 47.1769 232.859C47.068 232.883 46.9993 232.991 47.0241 233.099C47.0236 233.1 47.0236 233.1 47.0236 233.101ZM45.8688 228.358C45.8921 228.466 45.9994 228.533 46.1068 228.51C46.1084 228.509 46.1094 228.509 46.111 228.509C46.222 228.485 46.2934 228.378 46.2696 228.267C46.2464 228.157 46.1369 228.087 46.0259 228.11C45.9148 228.133 45.8435 228.241 45.8673 228.351C45.8678 228.354 45.8683 228.356 45.8688 228.358ZM45.1942 239.419C45.2196 239.527 45.3274 239.594 45.4358 239.57C45.5442 239.545 45.6124 239.438 45.5876 239.33C45.5632 239.225 45.4591 239.158 45.3528 239.178C45.2423 239.201 45.1709 239.309 45.1942 239.419ZM44.2425 234.649C44.2657 234.758 44.3747 234.828 44.4852 234.806C44.5925 234.781 44.6628 234.679 44.6454 234.572C44.62 234.462 44.5137 234.39 44.4011 234.407C44.2922 234.434 44.2224 234.539 44.2425 234.649ZM43.2908 229.879C43.314 229.988 43.423 230.059 43.5335 230.036C43.6429 230.015 43.7148 229.91 43.6937 229.802C43.6725 229.693 43.5668 229.622 43.4573 229.643C43.3473 229.665 43.2739 229.769 43.2908 229.879ZM42.3459 225.107C42.3623 225.213 42.4628 225.284 42.5696 225.268C42.5738 225.268 42.578 225.267 42.5823 225.266C42.6907 225.244 42.7626 225.14 42.742 225.032C42.7213 224.923 42.6156 224.852 42.5061 224.872C42.3967 224.892 42.3248 224.997 42.3454 225.106L42.3459 225.107ZM35.9489 231.939C35.9282 232.046 35.9996 232.151 36.108 232.171C36.1085 232.171 36.1091 232.171 36.1096 232.172C36.219 232.196 36.328 232.127 36.3523 232.018C36.3729 231.908 36.301 231.802 36.1905 231.779C36.0789 231.76 35.9727 231.83 35.9489 231.939ZM36.9164 227.167C36.8932 227.275 36.963 227.382 37.0719 227.406C37.1813 227.429 37.2892 227.36 37.3124 227.251C37.313 227.25 37.313 227.249 37.3135 227.247C37.332 227.137 37.2617 227.032 37.1517 227.008C37.0433 226.987 36.9381 227.058 36.917 227.166C36.917 227.166 36.917 227.166 36.9164 227.167ZM37.8782 222.403C37.8597 222.514 37.9358 222.619 38.0484 222.637C38.1552 222.655 38.2573 222.586 38.2821 222.482C38.3038 222.371 38.2319 222.265 38.1203 222.242C38.0077 222.22 37.9004 222.292 37.8782 222.403ZM53.4688 233.405C53.5333 233.497 53.6607 233.52 53.7543 233.458C53.8463 233.397 53.8701 233.273 53.8087 233.182C53.7516 233.089 53.63 233.06 53.5359 233.116C53.5333 233.117 53.5312 233.119 53.5285 233.12C53.4328 233.18 53.4043 233.305 53.4651 233.399C53.4661 233.401 53.4677 233.403 53.4688 233.405ZM50.7485 229.358C50.813 229.45 50.9404 229.473 51.034 229.411C51.126 229.35 51.1498 229.226 51.0884 229.135C51.0313 229.042 50.9097 229.013 50.8156 229.069C50.813 229.07 50.8109 229.072 50.8082 229.073C50.713 229.133 50.684 229.258 50.7448 229.352C50.7453 229.354 50.7469 229.356 50.7485 229.358ZM45.2994 231.025C45.3338 231.102 45.4237 231.137 45.5014 231.104C45.5775 231.071 45.6129 230.984 45.5828 230.908C45.5543 230.833 45.4691 230.795 45.3935 230.824C45.3888 230.825 45.384 230.828 45.3792 230.83C45.3036 230.863 45.2687 230.949 45.2994 231.025ZM43.8443 227.66C43.8787 227.737 43.9697 227.773 44.0474 227.738C44.1256 227.704 44.1611 227.614 44.1267 227.537C44.1267 227.537 44.1267 227.536 44.1262 227.536C44.0934 227.46 44.0046 227.423 43.9274 227.456C43.9258 227.457 43.9242 227.457 43.9226 227.458C43.8465 227.493 43.8116 227.582 43.8443 227.66ZM42.3882 224.288C42.4226 224.366 42.5135 224.401 42.5918 224.366C42.67 224.332 42.7049 224.242 42.6706 224.164C42.6362 224.087 42.5453 224.052 42.467 224.086C42.3909 224.122 42.3555 224.211 42.3882 224.288ZM37.4541 230.658C37.4573 230.741 37.5266 230.807 37.6101 230.806C37.6931 230.8 37.7576 230.733 37.7598 230.651C37.7582 230.568 37.6894 230.501 37.6048 230.503C37.6043 230.503 37.6038 230.503 37.6032 230.503C37.5218 230.501 37.4547 230.566 37.4536 230.647C37.4536 230.651 37.4536 230.654 37.4541 230.658ZM37.405 226.987C37.4087 227.071 37.4774 227.139 37.5625 227.143C37.6471 227.141 37.7138 227.072 37.7122 226.989C37.7122 226.988 37.7122 226.988 37.7122 226.987C37.7138 226.907 37.6498 226.84 37.5684 226.838C37.5668 226.838 37.5647 226.838 37.5631 226.838C37.4785 226.835 37.4081 226.9 37.4055 226.984C37.405 226.985 37.405 226.986 37.405 226.987ZM37.3643 223.323C37.3627 223.403 37.4277 223.47 37.5097 223.471C37.5134 223.471 37.5171 223.471 37.5202 223.471C37.6011 223.473 37.6683 223.41 37.6709 223.33C37.6709 223.328 37.6709 223.325 37.6709 223.323C37.6672 223.239 37.5985 223.171 37.5134 223.168C37.4288 223.169 37.3621 223.238 37.3637 223.322C37.3643 223.322 37.3643 223.322 37.3643 223.323ZM36.5246 222.575C36.5315 222.621 36.5738 222.652 36.6203 222.647C36.6669 222.64 36.6997 222.598 36.6928 222.552C36.6864 222.506 36.6436 222.473 36.5971 222.48C36.595 222.481 36.5923 222.481 36.5897 222.482C36.5469 222.491 36.5188 222.531 36.5246 222.575ZM38.8886 225.807C38.9309 225.87 39.0165 225.887 39.0789 225.845C39.1387 225.811 39.1604 225.734 39.1255 225.675C39.1233 225.67 39.1207 225.667 39.1181 225.664C39.0837 225.602 39.0054 225.579 38.9425 225.612C38.9393 225.614 38.9362 225.616 38.933 225.618C38.869 225.655 38.8458 225.736 38.8833 225.8C38.8854 225.802 38.8875 225.805 38.8886 225.807ZM37.1115 222.996C37.1459 223.058 37.2242 223.081 37.2871 223.047C37.2902 223.046 37.2934 223.044 37.2966 223.042C37.3606 223.004 37.3838 222.923 37.3463 222.86C37.3447 222.857 37.3431 222.854 37.3415 222.852C37.3008 222.787 37.2152 222.768 37.1496 222.807C37.0872 222.846 37.0682 222.928 37.1073 222.99C37.1094 222.992 37.1105 222.994 37.1115 222.996ZM35.3287 220.193C35.3704 220.256 35.455 220.275 35.5206 220.237C35.5851 220.199 35.6068 220.116 35.5682 220.051C35.5671 220.05 35.5666 220.048 35.5655 220.047C35.5248 219.982 35.4392 219.963 35.3736 220.002C35.3091 220.044 35.2901 220.127 35.3287 220.193Z" fill="white"/>
<path d="M100.274 210.44C100.274 210.44 129.798 209.555 134.655 207.83C139.512 206.105 147.028 202.199 149.411 203.834C151.794 205.468 160.042 212.551 160.042 212.551C160.042 212.551 158.026 214.731 153.627 212.006C149.228 209.282 149.136 208.464 146.753 210.19C144.369 211.916 137.588 216.819 133.281 215.367C128.974 213.914 126.682 214.368 122.833 216.911C118.983 219.453 98.9395 229.328 98.9395 229.328L100.274 210.44Z" fill="#FFBEB6"/>
<path d="M96.9443 169.39L87.7248 160.255C81.5948 161.033 75.6519 162.877 70.1695 165.702C67.1531 167.269 64.2578 169.057 61.5105 171.052C48.9041 180.206 48.8723 185.584 41.7842 191.127C41.7705 191.14 41.7546 191.153 41.7387 191.164C34.6633 196.694 25.3619 203.242 28.4804 216.011C31.6263 217.85 34.6305 219.483 37.4925 220.913C46.8896 225.636 54.811 228.345 61.3878 229.762C61.3878 229.762 61.3926 229.767 61.3926 229.762C65.3411 230.654 69.379 231.104 73.4286 231.103C76.6274 231.12 79.8119 230.673 82.8801 229.775C84.0766 229.42 85.2388 228.958 86.3507 228.395C89.5119 227.952 92.6288 227.238 95.6668 226.264C79.4608 202.527 96.9443 169.39 96.9443 169.39Z" fill="url(#paint5_linear)"/>
<path d="M96.9439 169.39C96.9439 169.39 77.2821 181.641 81.7742 198.702C83.0886 203.695 86.3435 206.18 92.2911 208.037C99.4168 210.262 101.274 210.208 101.274 210.208L99.3026 242.12C99.3026 242.12 84.3618 242.405 77.8315 235.228C70.4869 227.156 64.5525 226.158 60.0837 223.016C53.2916 218.24 51.5389 210.208 51.9772 200.872C52.8015 183.305 65.7802 166.138 87.7255 160.254" fill="#23286B"/>
<path d="M105.16 156.359C105.16 156.359 101.211 160.828 96.944 169.39C96.944 169.39 89.3711 171.13 87.7246 160.255C87.7246 160.255 95.6862 156.674 95.9474 152.844L105.16 156.359Z" fill="url(#paint6_linear)"/>
<path d="M115.844 145.33C115.845 145.402 115.843 145.455 115.845 145.486C115.849 145.497 115.85 145.508 115.847 145.518C115.85 145.806 115.842 146.098 115.826 146.4C115.653 149.651 117.537 152.527 117.375 153.401C117.213 154.275 115.379 154.555 114.54 154.484C113.7 154.414 111.957 158.307 108.168 160.06C104.613 161.705 99.9366 160.581 97.127 158.31C97.1418 151.286 98.2193 146.522 105.42 144.657C113.28 142.618 114.339 139.585 114.339 139.585C115.269 141.365 115.783 143.328 115.844 145.33Z" fill="#FFBEB6"/>
<path d="M93.3927 130.546C97.2393 130.546 100.358 127.456 100.358 123.645C100.358 119.833 97.2393 116.744 93.3927 116.744C89.546 116.744 86.4277 119.833 86.4277 123.645C86.4277 127.456 89.546 130.546 93.3927 130.546Z" fill="url(#paint7_linear)"/>
<path d="M120.647 148.861C121.311 147.064 120.876 145.086 119.679 144.449L119.678 144.448C118.479 143.813 116.963 144.758 116.298 146.555C116.222 146.762 116.159 146.974 116.111 147.19C115.319 146.957 114.518 147.367 113.827 147.858C113.811 147.75 113.807 147.639 113.784 147.534C113.659 146.672 113.155 145.911 112.408 145.455C111.02 144.72 109.265 145.818 108.494 147.901C108.127 148.869 108.038 149.919 108.235 150.934C108.353 151.619 108.691 152.248 109.198 152.727C109.325 152.838 109.464 152.934 109.612 153.013C110.324 153.372 111.179 153.303 111.823 152.836C112.622 152.28 113.218 151.484 113.525 150.567C113.778 149.88 113.898 149.152 113.879 148.422C114.496 147.959 115.285 147.462 116.026 147.698C115.877 148.934 116.207 150.105 116.914 150.722C117.022 150.817 117.141 150.899 117.267 150.967C118.466 151.603 119.983 150.657 120.647 148.861ZM111.622 152.378C111.09 152.769 110.381 152.831 109.788 152.538C109.17 152.155 108.754 151.521 108.655 150.805C108.481 149.903 108.562 148.971 108.889 148.112C109.563 146.29 111.062 145.313 112.23 145.933C112.35 145.997 112.462 146.073 112.563 146.162C112.986 146.565 113.267 147.092 113.364 147.665C113.538 148.567 113.457 149.499 113.129 150.358C112.858 151.175 112.329 151.883 111.622 152.378ZM117.443 150.491C116.46 149.969 116.126 148.3 116.692 146.766C117.26 145.231 118.52 144.406 119.5 144.925C120.485 145.446 120.818 147.118 120.251 148.651C119.684 150.185 118.424 151.011 117.443 150.491Z" fill="#23286B"/>
<path d="M101.629 128.967C97.3677 128.106 94.0404 128.837 91.5834 130.278C88.6579 130.098 86.2644 127.901 85.8604 125.023C85.8128 124.739 85.3766 124.86 85.4242 125.143C85.844 127.993 88.0969 130.235 90.9722 130.664C89.3585 131.751 88.0504 133.227 87.1701 134.953C86.9813 135.217 86.7947 135.486 86.6112 135.761C84.9373 138.264 83.3019 140.159 80.5462 141.549C76.8943 143.391 72.1209 145.088 72.0977 149.897C72.1024 150.021 72.2066 150.117 72.3319 150.114C72.4514 150.109 72.5465 150.015 72.5508 149.897C72.5793 144.022 79.7288 143.227 83.4346 140.326C84.399 139.529 85.2413 138.598 85.9339 137.561C84.849 139.691 83.174 142.214 80.3072 143.206C74.9152 145.072 73.982 151.411 73.982 151.411C83.3648 160.243 100.217 160.675 100.217 160.675C103.765 153.066 99.5069 149.406 105.996 146.397C113.357 142.984 114.34 139.581 114.34 139.581C115.295 141.42 115.811 143.45 115.849 145.518C118.999 135.074 109.594 130.574 101.629 128.967Z" fill="#E94A47"/>
<defs>
<linearGradient id="paint0_linear" x1="150.644" y1="211.073" x2="105.38" y2="211.073" gradientUnits="userSpaceOnUse">
<stop stop-color="#FFBEB6"/>
<stop offset="1" stop-color="#F2A19C"/>
</linearGradient>
<linearGradient id="paint1_linear" x1="112.775" y1="198.629" x2="77.2833" y2="198.629" gradientUnits="userSpaceOnUse">
<stop stop-color="#28306D"/>
<stop offset="1" stop-color="#13194C"/>
</linearGradient>
<linearGradient id="paint2_linear" x1="150.32" y1="314.663" x2="116.158" y2="319.371" gradientUnits="userSpaceOnUse">
<stop stop-color="#A1C3FC"/>
<stop offset="0.6955" stop-color="#81AEF2"/>
<stop offset="0.8442" stop-color="#7DACF1"/>
<stop offset="1" stop-color="#78A9EF"/>
</linearGradient>
<linearGradient id="paint3_linear" x1="107.083" y1="316.716" x2="43.8209" y2="327.699" gradientUnits="userSpaceOnUse">
<stop stop-color="#A1C3FC"/>
<stop offset="0.6955" stop-color="#81AEF2"/>
<stop offset="1" stop-color="#78A9EF"/>
</linearGradient>
<linearGradient id="paint4_linear" x1="171.599" y1="301.899" x2="105.876" y2="251.074" gradientUnits="userSpaceOnUse">
<stop offset="0.1291" stop-color="#428DFC"/>
<stop offset="0.9987" stop-color="#1D72D8"/>
</linearGradient>
<linearGradient id="paint5_linear" x1="60.32" y1="178.375" x2="68.9581" y2="231.979" gradientUnits="userSpaceOnUse">
<stop stop-color="#23286B"/>
<stop offset="1" stop-color="#151A4F"/>
</linearGradient>
<linearGradient id="paint6_linear" x1="86.9073" y1="172.171" x2="95.3607" y2="160.479" gradientUnits="userSpaceOnUse">
<stop stop-color="#FFBEB6"/>
<stop offset="1" stop-color="#F2A19C"/>
</linearGradient>
<linearGradient id="paint7_linear" x1="89.4689" y1="115.417" x2="98.0065" y2="133.705" gradientUnits="userSpaceOnUse">
<stop stop-color="#E94A47"/>
<stop offset="0.9918" stop-color="#D62929"/>
</linearGradient>
<clipPath id="clip0">
<rect width="156.954" height="116.651" fill="white" transform="translate(0 53.3379)"/>
</clipPath>
<clipPath id="clip1">
<rect width="4.47926" height="4.47926" fill="white" transform="translate(93.2246 123.606)"/>
</clipPath>
</defs>
</svg>
